<svg width="402" height="133" viewBox="0 0 402 133" fill="none" xmlns="http://www.w3.org/2000/svg">
  <path d="M69.5515 94.8961L60.0615 102.106L62.6615 89.4961L69.5515 94.8961Z" fill="#6B7280" />
  <path
    d="M117.371 22.1462C117.869 21.9795 118.403 21.9548 118.913 22.0749C119.424 22.195 119.891 22.4551 120.262 22.826C120.633 23.1969 120.893 23.6638 121.013 24.1744C121.133 24.6849 121.108 25.2189 120.941 25.7162L107.361 66.4962L93.2615 108.796C93.1164 109.226 92.8704 109.615 92.5439 109.931C92.2175 110.246 91.8202 110.479 91.3854 110.609C90.9505 110.739 90.4908 110.764 90.0447 110.679C89.5986 110.595 89.1791 110.406 88.8215 110.126L69.5115 94.8862L62.6615 89.4962L45.5215 75.9562L23.0815 58.2362C22.6793 57.9213 22.3702 57.503 22.1872 57.0261C22.0042 56.5492 21.9541 56.0315 22.0425 55.5284C22.1308 55.0252 22.3541 54.5555 22.6885 54.1694C23.023 53.7833 23.4561 53.4953 23.9415 53.3362L33.2315 50.2362L117.371 22.1462Z"
    fill="#D1D5DB" />
  <path
    d="M117.471 26.4163L62.6615 89.4962L60.5715 101.266C60.5193 101.575 60.3699 101.859 60.1449 102.077C59.92 102.295 59.6314 102.435 59.3211 102.478C59.0108 102.52 58.6951 102.462 58.4199 102.313C58.1448 102.163 57.9246 101.93 57.7915 101.646L45.5115 75.9562L116.221 25.0862C116.404 24.9716 116.621 24.924 116.835 24.9514C117.048 24.9789 117.246 25.0798 117.394 25.2369C117.541 25.394 117.63 25.5975 117.644 25.8126C117.658 26.0278 117.597 26.2411 117.471 26.4163Z"
    fill="#9CA3AF" />
  <path d="M197.987 57.9043H180.987V66.0543H197.987V57.9043Z" fill="#9CA3AF" />
  <path
    d="M233.407 54.1043C231.916 51.5441 229.787 49.4146 227.227 47.9244C224.649 46.4434 221.729 45.6641 218.757 45.6641C215.784 45.6641 212.864 46.4434 210.287 47.9244C207.738 49.4161 205.622 51.546 204.147 54.1043C202.644 56.6839 201.86 59.6191 201.877 62.6043V87.0644H210.297V76.9243L210.497 77.0644C212.933 78.761 215.849 79.6336 218.817 79.5544C221.788 79.5708 224.709 78.7904 227.277 77.2944C229.837 75.8041 231.966 73.6746 233.457 71.1144C234.961 68.5341 235.753 65.6009 235.753 62.6144C235.753 59.6278 234.961 56.6947 233.457 54.1144L233.407 54.1043ZM224.937 68.8743C224.15 69.6996 223.199 70.3503 222.144 70.7844C221.09 71.2185 219.956 71.4263 218.817 71.3944C217.67 71.4211 216.531 71.2111 215.469 70.7775C214.407 70.3439 213.447 69.696 212.647 68.8743C211.83 68.051 211.189 67.0712 210.761 65.9937C210.333 64.9162 210.128 63.7633 210.157 62.6043C210.128 61.4454 210.333 60.2925 210.761 59.215C211.189 58.1375 211.83 57.1577 212.647 56.3343C213.447 55.5127 214.407 54.8648 215.469 54.4312C216.531 53.9976 217.67 53.7876 218.817 53.8144C219.955 53.7838 221.086 53.9923 222.139 54.4263C223.191 54.8604 224.141 55.5104 224.927 56.3343C225.724 57.1681 226.348 58.1513 226.763 59.2274C227.179 60.3036 227.377 61.4513 227.347 62.6043C227.378 63.7568 227.182 64.904 226.768 65.9801C226.354 67.0562 225.732 68.0398 224.937 68.8743Z"
    fill="#9CA3AF" />
  <path
    d="M264.677 47.9244C262.1 46.4434 259.179 45.6641 256.207 45.6641C253.234 45.6641 250.314 46.4434 247.737 47.9244C245.181 49.4204 243.053 51.5485 241.557 54.1043C240.053 56.6846 239.261 59.6178 239.261 62.6043C239.261 65.5909 240.053 68.524 241.557 71.1043C243.05 73.6595 245.179 75.785 247.737 77.2744C250.304 78.7816 253.23 79.566 256.207 79.5443C257.997 79.5498 259.766 79.1462 261.377 78.3643C262.711 77.8324 263.815 76.8484 264.497 75.5843L264.737 75.0343V79.0343H273.087V62.6043C273.106 59.6187 272.322 56.6829 270.817 54.1043C269.344 51.544 267.228 49.4135 264.677 47.9244ZM262.387 68.9243C261.6 69.7473 260.651 70.3966 259.598 70.8306C258.546 71.2646 257.415 71.4737 256.277 71.4443C255.129 71.47 253.988 71.2596 252.925 70.8261C251.862 70.3926 250.899 69.7453 250.097 68.9243C249.281 68.099 248.641 67.1172 248.215 66.0379C247.789 64.9586 247.585 63.8043 247.617 62.6444C247.586 61.4861 247.791 60.3336 248.217 59.2562C248.643 58.1787 249.282 57.1985 250.097 56.3743C250.899 55.5534 251.862 54.9061 252.925 54.4726C253.988 54.0391 255.129 53.8287 256.277 53.8544C257.415 53.825 258.546 54.0341 259.598 54.4681C260.651 54.9021 261.6 55.5514 262.387 56.3743C263.991 58.0468 264.865 60.2877 264.817 62.6043C264.847 63.7597 264.647 64.9096 264.23 65.9875C263.813 67.0654 263.187 68.0499 262.387 68.8844V68.9243Z"
    fill="#9CA3AF" />
  <path
    d="M308.817 54.1043C307.326 51.5441 305.197 49.4146 302.637 47.9244C300.059 46.4434 297.139 45.6641 294.167 45.6641C291.194 45.6641 288.274 46.4434 285.697 47.9244C283.148 49.4161 281.032 51.546 279.557 54.1043C278.058 56.6857 277.275 59.6197 277.287 62.6043V87.0644H285.707V76.9243L285.907 77.0644C288.329 78.7508 291.225 79.6229 294.177 79.5544C297.148 79.5708 300.069 78.7904 302.637 77.2944C305.197 75.8041 307.326 73.6746 308.817 71.1144C310.32 68.5341 311.113 65.6009 311.113 62.6144C311.113 59.6278 310.32 56.6947 308.817 54.1144V54.1043ZM300.347 68.8743C299.559 69.6991 298.608 70.3495 297.554 70.7836C296.5 71.2176 295.366 71.4257 294.227 71.3944C293.08 71.4193 291.941 71.2084 290.88 70.775C289.819 70.3415 288.858 69.6946 288.057 68.8743C287.244 68.0488 286.606 67.0684 286.18 65.9913C285.754 64.9141 285.549 63.7623 285.577 62.6043C285.549 61.4464 285.754 60.2946 286.18 59.2174C286.606 58.1403 287.244 57.1599 288.057 56.3343C288.858 55.5141 289.819 54.8672 290.88 54.4337C291.941 54.0003 293.08 53.7894 294.227 53.8144C295.366 53.783 296.5 53.9911 297.554 54.4251C298.608 54.8592 299.559 55.5096 300.347 56.3343C301.154 57.1633 301.788 58.1446 302.212 59.2211C302.636 60.2976 302.841 61.4476 302.817 62.6043C302.843 63.7604 302.639 64.91 302.216 65.9864C301.794 67.0629 301.162 68.0445 300.357 68.8743H300.347Z"
    fill="#9CA3AF" />
  <path
    d="M172.277 50.7242C170.716 49.1263 168.848 47.8598 166.786 47.0007C164.724 46.1416 162.51 45.7074 160.277 45.7242H159.817C157.523 45.7051 155.247 46.1331 153.117 46.9842C151.089 47.8355 149.26 49.0989 147.747 50.6942C146.256 52.2624 145.088 54.1071 144.307 56.1242C142.681 60.3052 142.681 64.9433 144.307 69.1242C145.101 71.122 146.273 72.9485 147.757 74.5042C149.273 76.0789 151.098 77.3248 153.117 78.1642C155.237 79.0642 157.514 79.5366 159.817 79.5542H159.997C163.175 79.6244 166.31 78.8146 169.057 77.2142C171.315 75.9203 173.167 74.0227 174.407 71.7342L174.817 70.9842L167.347 68.7442L167.117 69.1343C166.874 69.5697 166.582 69.9757 166.247 70.3442C165.768 70.8503 165.219 71.2848 164.617 71.6343C163.968 72.0092 163.272 72.2951 162.547 72.4842C161.79 72.6693 161.015 72.7666 160.237 72.7743C159.209 72.7723 158.191 72.5755 157.237 72.1942C156.289 71.8167 155.423 71.2598 154.687 70.5542C153.934 69.8134 153.32 68.9428 152.877 67.9842C152.557 67.3152 152.318 66.6101 152.167 65.8843V65.7342H176.507L176.667 64.6042C176.667 64.3542 176.727 64.0842 176.747 63.7842C176.793 63.319 176.817 62.8518 176.817 62.3843C176.815 60.2248 176.422 58.0834 175.657 56.0643C174.905 54.073 173.754 52.256 172.277 50.7242ZM151.967 59.2442V59.0942C152.112 58.4051 152.333 57.7343 152.627 57.0942C153.037 56.1673 153.628 55.3311 154.365 54.6341C155.101 53.9372 155.968 53.3934 156.917 53.0342C157.868 52.6416 158.887 52.4411 159.917 52.4442H160.087C161.115 52.4497 162.133 52.6499 163.087 53.0342C164.032 53.3943 164.901 53.9304 165.647 54.6143C166.395 55.3241 167.002 56.1689 167.437 57.1042C167.746 57.7407 167.978 58.4122 168.127 59.1042V59.2542L151.967 59.2442Z"
    fill="#9CA3AF" />
  <path
    d="M344.117 50.7144C342.609 49.1569 340.807 47.913 338.817 47.0544C336.718 46.1421 334.455 45.6723 332.167 45.6744H331.687C329.379 45.6672 327.093 46.1123 324.957 46.9844C322.929 47.8394 321.1 49.1061 319.587 50.7044C318.091 52.2683 316.922 54.1141 316.147 56.1344C314.519 60.315 314.519 64.9538 316.147 69.1344C316.939 71.1335 318.11 72.9604 319.597 74.5144C321.113 76.0891 322.938 77.3349 324.957 78.1744C327.094 79.0718 329.389 79.5308 331.707 79.5244H331.887C335.065 79.5946 338.2 78.7847 340.947 77.1844C343.201 75.889 345.05 73.9915 346.287 71.7044L346.687 70.9544L339.217 68.7144L338.987 69.1044C338.744 69.5398 338.452 69.9458 338.117 70.3144C337.639 70.8211 337.09 71.2556 336.487 71.6044C335.84 71.9833 335.143 72.2694 334.417 72.4544C333.661 72.6443 332.886 72.7417 332.107 72.7444C330.039 72.7493 328.05 71.9537 326.557 70.5244C325.797 69.7938 325.174 68.9336 324.717 67.9844C324.4 67.3141 324.162 66.6094 324.007 65.8844V65.7344H348.317L348.467 64.6144C348.467 64.3677 348.497 64.0877 348.557 63.7744C348.604 63.3059 348.627 62.8353 348.627 62.3644C348.625 60.205 348.232 58.0638 347.467 56.0444C346.723 54.0588 345.584 52.2453 344.117 50.7144ZM323.817 59.2244V59.0744C323.97 58.3862 324.194 57.7159 324.487 57.0744C324.908 56.1396 325.51 55.2969 326.257 54.5944C327 53.8999 327.869 53.3534 328.817 52.9844C329.769 52.5949 330.788 52.3978 331.817 52.4044H331.987C333.014 52.4064 334.032 52.6032 334.987 52.9844C335.929 53.3548 336.797 53.8935 337.547 54.5744C338.297 55.2783 338.905 56.1203 339.337 57.0544C339.64 57.6933 339.872 58.3641 340.027 59.0544V59.2044L323.817 59.2244Z"
    fill="#9CA3AF" />
  <path
    d="M378.587 49.3343C377.157 48.3744 375.62 47.5857 374.007 46.9843C372.358 46.3748 370.614 46.0633 368.857 46.0643H368.687C366.516 46.0584 364.369 46.5117 362.387 47.3943C360.454 48.2575 358.701 49.4751 357.217 50.9843C355.723 52.4888 354.528 54.2636 353.697 56.2143C352.828 58.2285 352.385 60.4007 352.397 62.5943V78.9843H360.687V62.5443C360.678 61.4611 360.896 60.388 361.327 59.3943C361.741 58.4107 362.338 57.5148 363.087 56.7543C363.814 55.9997 364.684 55.398 365.647 54.9843C367.328 54.2553 369.212 54.1455 370.967 54.6743C371.721 54.9239 372.453 55.235 373.157 55.6043L373.817 55.9843L379.587 49.9843L378.587 49.3343Z"
    fill="#9CA3AF" />
</svg>
